<svg xmlns="http://www.w3.org/2000/svg" width="21px" height="24px" viewBox="0 0 21 24"><g fill="white" fill-rule="nonzero" stroke="none" stroke-width="1"><path d="M9.128 7.833h9.476c.984 0 1.491.515 1.491 1.562v13.158c0 .984-.507 1.447-1.49 1.447H9.127c-.984 0-1.272-.463-1.272-1.447V9.395c0-.983.288-1.562 1.272-1.562zm1.202 1.479c-.5 0-1.024.48-1.024.957v11.29c0 .488.49.98 1.024.98h7.315c.469 0 .959-.494.959-.98V10.27c0-.474-.484-.957-.96-.957H10.33z" transform="translate(-28 -141) translate(28 141)"></path><path d="M16.63 8.905h-1.45V6.342c0-.457-.505-.993-.953-.993H6.378c-.507 0-1.013.55-1.013.993v12.023c0 .448.503.737 1.013.737l2.527.006v1.49H5.392c-.984 0-1.474-.512-1.474-1.496V5.699c0-.983.798-1.78 1.781-1.78h9.52c.984 0 1.411.49 1.411 1.474v3.512z" transform="translate(-28 -141) translate(28 141)"></path><path d="M12.712 4.987h-1.45V2.424c0-.458-.505-.993-.954-.993H2.46c-.507 0-1.014.55-1.014.993v12.023c0 .448.504.737 1.014.737l2.527.006v1.49H1.473C.49 16.68 0 16.167 0 15.184V1.78C0 .797.797 0 1.781 0h9.52c.984 0 1.41.491 1.41 1.475v3.512zM13.876 12.735l-2.388.91v2.273c0 1.82.955 2.502 2.388 3.184 1.432-.682 2.387-1.364 2.387-3.184v-2.274l-2.387-.91z" transform="translate(-28 -141) translate(28 141)"></path></g></svg>